<svg xmlns="http://www.w3.org/2000/svg" width="205.5" height="205.5" viewBox="0 0 205.5 205.5">
  <g id="グループ化_35" data-name="グループ化 35" transform="translate(-207 -856.5)">
    <g id="グループ化_34" data-name="グループ化 34" transform="translate(0 44.5)">
      <rect id="長方形_45" data-name="長方形 45" width="205.5" height="205.5" transform="translate(207 812)" fill="none"/>
    </g>
    <g id="XMLID_468_" transform="translate(-146.2 485.5)">
      <g id="XMLID_1403_">
        <path id="XMLID_1406_" d="M427.2,394.1a7.476,7.476,0,0,1,5.7,2.4,8.1,8.1,0,0,1,2.3,5.7,7.857,7.857,0,0,1-8,8q-9.6,0-9.6,9.6v36.8c0,7.4-1.7,13.3-5.1,17.6,3.4,4.3,5.1,10.2,5.1,17.6v36.8q0,9.6,9.6,9.6a7.857,7.857,0,0,1,8,8,8.162,8.162,0,0,1-2.3,5.8,7.764,7.764,0,0,1-5.7,2.3c-17.1,0-25.7-8.6-25.7-25.7V491.8c0-6.4-3.2-9.6-9.5-9.6a8,8,0,1,1,0-16c6.3,0,9.5-3.2,9.5-9.6V419.8C401.5,402.6,410.1,394.1,427.2,394.1Z"/>
        <path id="XMLID_1404_" d="M510.9,419.7v36.8c0,6.4,3.2,9.6,9.5,9.6a8,8,0,1,1,0,16c-6.3,0-9.5,3.2-9.5,9.6v36.8c0,17.1-8.6,25.7-25.7,25.7a7.764,7.764,0,0,1-5.7-2.3,8,8,0,0,1-2.3-5.8,7.857,7.857,0,0,1,8-8q9.6,0,9.6-9.6V491.7c0-7.4,1.7-13.3,5.1-17.6-3.4-4.3-5.1-10.2-5.1-17.6V419.7q0-9.6-9.6-9.6a8.062,8.062,0,0,1-5.7-13.7,7.476,7.476,0,0,1,5.7-2.4C502.4,394.1,510.9,402.6,510.9,419.7Z"/>
      </g>
    </g>
  </g>
</svg>
