<svg xmlns="http://www.w3.org/2000/svg" xmlns:xlink="http://www.w3.org/1999/xlink" width="1830.482" height="1543.782" viewBox="0 0 1830.482 1543.782">
  <defs>
    <linearGradient id="linear-gradient" x1="-1.914" y1="5.579" x2="-0.983" y2="6.332" gradientUnits="objectBoundingBox">
      <stop offset="0.283" stop-color="#7e5bff"/>
      <stop offset="0.931" stop-color="#fc70c7"/>
    </linearGradient>
    <linearGradient id="linear-gradient-2" x1="-0.368" y1="4.074" x2="-0.185" y2="5.232" gradientUnits="objectBoundingBox">
      <stop offset="0.283" stop-color="#7e5bff"/>
      <stop offset="1" stop-color="#fc70c7"/>
    </linearGradient>
    <linearGradient id="linear-gradient-3" x1="-41.65" y1="-5.922" x2="-40.719" y2="-5.17" xlink:href="#linear-gradient"/>
    <linearGradient id="linear-gradient-4" x1="-26.444" y1="-4.79" x2="-26.261" y2="-3.631" xlink:href="#linear-gradient-2"/>
    <linearGradient id="linear-gradient-5" x1="0.201" y1="3.739" x2="0.799" y2="-2.738" gradientUnits="objectBoundingBox">
      <stop offset="0" stop-color="#fc70c7"/>
      <stop offset="0.492" stop-color="#b92bf1"/>
      <stop offset="1" stop-color="#7e5bff"/>
    </linearGradient>
    <linearGradient id="linear-gradient-6" x1="0.522" y1="4.162" x2="0.477" y2="-3.163" gradientUnits="objectBoundingBox">
      <stop offset="0" stop-color="#51f2ed"/>
      <stop offset="0.492" stop-color="#7e5bff"/>
      <stop offset="1" stop-color="#303075"/>
    </linearGradient>
    <linearGradient id="linear-gradient-7" x1="0.503" y1="0.679" x2="0.503" y2="0.255" gradientUnits="objectBoundingBox">
      <stop offset="0" stop-color="#464392"/>
      <stop offset="1" stop-color="#303075"/>
    </linearGradient>
    <linearGradient id="linear-gradient-8" x1="0.502" y1="0.766" x2="0.502" y2="0.378" xlink:href="#linear-gradient-7"/>
    <linearGradient id="linear-gradient-9" x1="1.054" y1="0.734" x2="0.71" y2="0.59" gradientUnits="objectBoundingBox">
      <stop offset="0" stop-color="#ffc5c5"/>
      <stop offset="1" stop-color="#ea8ca7"/>
    </linearGradient>
    <linearGradient id="linear-gradient-10" x1="-0.48" y1="0.69" x2="0.435" y2="0.529" gradientUnits="objectBoundingBox">
      <stop offset="0" stop-color="#fc70c7"/>
      <stop offset="1" stop-color="#db4dac"/>
    </linearGradient>
    <linearGradient id="linear-gradient-11" x1="0.459" y1="0.636" x2="0.599" y2="0.388" xlink:href="#linear-gradient-9"/>
    <linearGradient id="linear-gradient-12" x1="0.533" y1="0.756" x2="0.42" y2="0.551" xlink:href="#linear-gradient-9"/>
    <linearGradient id="linear-gradient-13" x1="0.797" y1="0.135" x2="0.606" y2="0.417" xlink:href="#linear-gradient-9"/>
    <linearGradient id="linear-gradient-14" x1="1.178" y1="0.866" x2="0.33" y2="0.422" xlink:href="#linear-gradient-9"/>
    <linearGradient id="linear-gradient-15" x1="0.551" y1="0.706" x2="0.075" y2="0.131" xlink:href="#linear-gradient-10"/>
    <linearGradient id="linear-gradient-16" x1="0.805" y1="0.671" x2="-0.158" y2="0.115" xlink:href="#linear-gradient-10"/>
    <linearGradient id="linear-gradient-17" x1="0.622" y1="0.89" x2="0.378" y2="-0.031" xlink:href="#linear-gradient-7"/>
    <linearGradient id="linear-gradient-18" x1="0.512" y1="0.819" x2="0.183" y2="0.054" gradientUnits="objectBoundingBox">
      <stop offset="0" stop-color="#51f2ed"/>
      <stop offset="1" stop-color="#35cfdb"/>
    </linearGradient>
    <linearGradient id="linear-gradient-19" x1="-33.66" y1="0.5" x2="-32.66" y2="0.5" gradientUnits="objectBoundingBox">
      <stop offset="0" stop-color="#ffc5c5"/>
      <stop offset="1" stop-color="#f9aab4"/>
    </linearGradient>
    <linearGradient id="linear-gradient-20" x1="0.63" y1="1.503" x2="0.432" y2="0.373" xlink:href="#linear-gradient-7"/>
    <linearGradient id="linear-gradient-21" x1="-28.363" y1="0.5" x2="-27.362" y2="0.5" xlink:href="#linear-gradient-19"/>
    <linearGradient id="linear-gradient-22" x1="-37.96" y1="0.5" x2="-36.96" y2="0.5" xlink:href="#linear-gradient-19"/>
    <linearGradient id="linear-gradient-23" x1="-112.802" y1="0.5" x2="-111.801" y2="0.5" xlink:href="#linear-gradient-19"/>
    <linearGradient id="linear-gradient-24" x1="-103.407" y1="0.5" x2="-102.406" y2="0.5" xlink:href="#linear-gradient-7"/>
    <linearGradient id="linear-gradient-25" x1="0" y1="0.5" x2="1" y2="0.5" xlink:href="#linear-gradient-7"/>
    <linearGradient id="linear-gradient-26" x1="0.176" y1="0.76" x2="0.907" y2="0.305" xlink:href="#linear-gradient-18"/>
    <linearGradient id="linear-gradient-27" x1="0.309" y1="0.776" x2="1.261" y2="-0.486" xlink:href="#linear-gradient-18"/>
  </defs>
  <g id="customize" transform="translate(-84.792 -228.2)">
    <g id="グループ化_33" data-name="グループ化 33">
      <g id="グループ化_1" data-name="グループ化 1">
        <path id="パス_1" data-name="パス 1" d="M1125.4,1598.3a386.833,386.833,0,0,0-55.5,4.5c-40.4,6.1-86,16.4-130.2,18.3a164.554,164.554,0,0,0,49.8,7.3c45.1-.1,92.2-15.3,135.9-30.1M154.5,1489.5a181.6,181.6,0,0,0,30.9,69.4c22.8,31.2,54.5,55,89.3,71.4,47.4,22.4,97.4,30.6,148.1,30.6,39.3,0,78.9-4.9,117.9-11.9,93.2-16.8,186.4-42.4,281.7-42.4,5.4,0,10.7.1,16.1.2,3.4.1,6.7.3,10.1.4A141.1,141.1,0,0,1,834,1600c-29.6-10.7-59.8-19.9-90.8-25.7-41.2-7.7-82.7-10.1-124.4-10.1-58.8,0-117.8,4.8-176.3,6.2q-11.7.3-23.4.3c-83.1,0-166.2-11.8-236.6-59.5a255.359,255.359,0,0,1-28-21.7M1761.8,883.2c-.3,1.4-.7,2.8-1,4.1-11.2,49.6,1,100.2,15,147.8,14.5,49.2,29.1,98.1,37.5,148.8,15.9,96,13.8,198.7-25.6,289-3.1,7.2-6.5,14.3-10.1,21.4,37.1-42,63.4-93.7,77.6-147.6,25.2-95.3,11.5-197.1-18.9-289.6-16.1-48.8-38-94.9-59.8-141.3-5.1-10.6-10.1-21.5-14.7-32.6M237,372.6c-51.2,42-82.4,104.2-94.7,170.2-28.5,153.5,40.8,298,69.9,446.5,32.7-189.5-59.7-386.3,6-573.2A333.846,333.846,0,0,1,237,372.6m1345.1-89.9c-48.1,0-97,9.5-142.2,20.3-101.2,24.3-199.5,59.3-300.5,84.5-42.1,10.5-84.9,19.2-128,24.3,38,6.1,76.5,8.6,115.1,8.6,33.6,0,67.3-1.9,100.8-4.9,103.7-9.4,206.1-29,309.9-37.5,23.3-1.9,47.5-3.3,71.9-3.3,68.5,0,138.2,11.2,192.2,54.4-15.9-46.2-45.5-87.5-87.9-113.3-40.2-24.5-85.4-33.1-131.3-33.1" fill="#e4c9f7"/>
        <path id="パス_2" data-name="パス 2" d="M848.5,1607.3c24.1,10.3,50.4,14,77.5,14,4.5,0,9.1-.1,13.7-.3-2.5-.8-5-1.7-7.5-2.6-27.7-5.4-55.6-9.6-83.7-11.1m929.1-112.9a301.319,301.319,0,0,1-56.7,50.2c-36,24.5-77.1,39.1-120.2,44.7a391.917,391.917,0,0,1-49.6,3c-30.8,0-61.7-3.1-92.3-7.1-49-6.3-97.7-15-147.1-17.8-8.7-.5-17.3-.8-25.9-.8a394.6,394.6,0,0,0-120.1,18.2c-13,4.1-26.5,8.7-40.3,13.4h3.4a418.237,418.237,0,0,1,88,9.6c48.4,10.4,95.2,26.4,142.6,40.2,45.5,13.2,92,24.5,139.6,25.7,2.5.1,5,.1,7.5.1,40.8,0,81.1-8.2,118.1-25.8,66.6-31.6,119.5-88.3,153-153.6M212.2,989.4a414.532,414.532,0,0,1-10.5,45.8c-27.4,94.4-97.2,173-113.9,271-7,41-2,83.6,17.3,120.8,12.4,23.8,29.5,44.8,49.4,62.6a208.616,208.616,0,0,1-4.7-47.3c1.4-99.4,58.3-187.7,71-285.2,7.4-56.9,2.2-112.6-8.6-167.7M1801.2,429a253.627,253.627,0,0,1,13.7,84.5c-.4,42.9-13.5,82.6-30.3,121.6-19,44-42.4,88.4-45.7,137.1-2.7,38.6,8.2,75.7,22.9,111.1,11.5-45.8,40.4-84.9,65.2-124.3,22.6-36,41.6-73.2,48.6-115.5,12.5-76-10-160.2-70.2-211-1.4-1.2-2.8-2.3-4.2-3.5M474.3,228.2c-29.6,0-59.1,3.8-87.7,12.7-67.6,21-118,70.8-149.6,131.8a231.313,231.313,0,0,1,44.9-28.9c44.6-21.8,93.9-30.3,143.5-30.3,36.9,0,74,4.7,109.4,12.2,101,21.4,195.9,65.2,297.8,83.2a553.507,553.507,0,0,0,95.9,8.1,696.256,696.256,0,0,0,82.9-5.2,542.245,542.245,0,0,1-90.6-22.3c-97.9-33.4-185-91.2-281.5-127.8-51.9-19.7-108.7-33.5-165-33.5" fill="#e4c9f7"/>
        <path id="パス_3" data-name="パス 3" d="M425.4,313.4c-49.6,0-98.9,8.5-143.5,30.3A223.859,223.859,0,0,0,237,372.6a323.74,323.74,0,0,0-18.8,43.6c-65.6,186.9,26.7,383.7-6,573.2,10.8,55.1,16,110.8,8.6,167.6-12.7,97.5-69.6,185.8-71,285.2a208.616,208.616,0,0,0,4.7,47.3,267.029,267.029,0,0,0,27.9,21.7c70.4,47.7,153.5,59.5,236.6,59.5q11.7,0,23.4-.3c58.5-1.4,117.5-6.2,176.3-6.2,41.7,0,83.2,2.4,124.4,10.1,31,5.8,61.2,15,90.8,25.7a141.1,141.1,0,0,0,14.6,7.2c28.1,1.5,56,5.7,83.6,11.1,2.5,1,5,1.8,7.5,2.6,44.3-1.9,89.8-12.2,130.2-18.3a401.762,401.762,0,0,1,55.5-4.5c13.8-4.7,27.3-9.3,40.3-13.4a396.76,396.76,0,0,1,120.1-18.2c8.6,0,17.2.3,25.9.8,49.4,2.8,98.1,11.5,147.1,17.8,30.6,4,61.4,7.1,92.3,7.1a391.917,391.917,0,0,0,49.6-3c43-5.6,84.2-20.2,120.2-44.7a304.882,304.882,0,0,0,56.7-50.2c3.6-7,7-14.2,10.1-21.4,39.5-90.4,41.6-193,25.6-289-8.4-50.7-23-99.6-37.5-148.8-14-47.7-26.2-98.2-15-147.8.3-1.4.6-2.8,1-4.1-14.7-35.4-25.5-72.5-22.9-111.1,3.3-48.7,26.7-93.1,45.7-137.1,16.9-39,29.9-78.7,30.3-121.6a256.624,256.624,0,0,0-13.7-84.5c-54-43.1-123.7-54.4-192.2-54.4-24.4,0-48.6,1.4-71.9,3.3-103.8,8.5-206.2,28-309.9,37.5-33.5,3-67.2,4.9-100.8,4.9-38.6,0-77.1-2.5-115.1-8.6a697.58,697.58,0,0,1-82.9,5.2,553.507,553.507,0,0,1-95.9-8.1c-101.8-18-196.8-61.8-297.8-83.2-35.2-7.4-72.3-12.1-109.2-12.1" fill="#d5acf2"/>
      </g>
      <g id="グループ化_32" data-name="グループ化 32">
        <g id="グループ化_2" data-name="グループ化 2">
          <path id="パス_4" data-name="パス 4" d="M279.6,1051.3c-.1,15.2-.6,30.4,5.4,44.7,12.4,29.2,40.8,45.4,69.1,56.1,6.6,2.5,13.3,4.8,20.1,7,1.9,2.6,5.8,3.9,8.7.9,18.5-19.4,21.5-47.5,17.5-72.9-4.9-31.1-20.7-59.2-26.3-90.1-5.2-28.6-2.6-60.1-19.7-85.2-14.9-21.8-39.2-33.5-59.5-49.3-9.7-7.5-18.8-16.2-24.1-27.4-5.8-12.4-5.8-29.3-20.2-35.6-15.4-6.7-25.6,8.5-32.7,19.7-7.5,11.9-14.7,24.2-18.8,37.7-18.9,62.6,46.5,102.7,71.2,151.4C277.3,1022,279.7,1036.1,279.6,1051.3Z" fill="url(#linear-gradient)"/>
          <path id="パス_5" data-name="パス 5" d="M341.8,1098.9a105.813,105.813,0,0,0-15.1-8.4c-6.6-3-12,6.9-5.3,9.9a99.593,99.593,0,0,1,26.6,17.7c10,29.8,22.3,58.7,40.7,84.5,16.5,23.1,37.3,43.1,62.8,56,6.5,3.3,11.8-6.7,5.3-9.9-46-23.2-74.2-69.5-91.8-116.2q-2.7-7.05-5.1-14.1a5.342,5.342,0,0,0-1.4-5.7l-.8-.8c-5.3-16.1-10.1-32.5-14.8-48.9a4.446,4.446,0,0,0,.8-2,319.073,319.073,0,0,0,5.3-93c-.6-7.2-11.9-7-11.3.2a315.855,315.855,0,0,1-1.8,71.4c-7-23.3-14.8-46.3-25.1-68.5-13.1-28.1-30.6-54.4-54.1-74.8-5.5-4.7-13.2,3.5-7.7,8.2,15.5,13.5,28,29.3,38.4,46.5-5.5-3.6-10.9-7.2-16.4-10.8-6-4-11.4,5.9-5.3,9.9,11,7.3,22,14.6,33.1,21.9,12.1,25,20.9,51.9,28.7,78.4C332.3,1066.5,336.8,1082.8,341.8,1098.9Z" fill="#7e5bff"/>
        </g>
        <g id="グループ化_3" data-name="グループ化 3">
          <path id="パス_6" data-name="パス 6" d="M155.5,1127c9.2,16.7,23.9,26.5,39.7,36.3,8,5,15.9,10.1,22.1,17.2,5.5,6.3,9.4,13.6,12.7,21.3,6.6,15.4,10.3,31.8,16.8,47.1,6.8,15.7,17.1,29.6,32.3,38.1,32.5,18.2,71.7,9.9,101.2-10.2,15.1-10.3,30.1-23.3,37.9-40.3,6.9-15.1,6-31.6-.6-46.6-15.4-34.7-52.6-48.1-85.4-61-18.2-7.2-36.9-15.4-50.9-29.5a66.618,66.618,0,0,1-15.4-23.5c-3.2-8.3-5.1-17.1-8-25.5-2.9-8.6-6.5-16.9-12.4-24-5.5-6.6-12.9-11.5-20.6-15.3-16.1-7.9-33.9-12.2-47.1-25.1-13.4-13.1-22-30.2-33.9-44.6-9.6-11.6-27.7-29.5-44.5-22.2a16.693,16.693,0,0,0-10.3,17.9,4.855,4.855,0,0,0,1.9,3.5c-5.3,30.7,16.7,60.3,31.2,86,9.3,16.4,14,33.6,18,52C143.8,1095.1,147.3,1112.1,155.5,1127Z" fill="url(#linear-gradient-2)"/>
          <path id="パス_7" data-name="パス 7" d="M235.5,1050.2c-2.5-7.2-14.2-4.7-11.7,2.6a285.471,285.471,0,0,1,15,81.3c-8.3-11.1-16.2-22.5-23.7-34.1-18.6-28.9-35.2-59-51.6-89.2-3.7-6.8-14.3-1.3-10.6,5.5,29,53.1,58.5,106.9,98.8,152.5,19.9,22.5,42.6,42,67.1,59.3.2.2.5.3.7.5-12.7-.8-25.5-1.7-38.2-2.5-7.7-.5-8.1,11.4-.5,12,15.9,1.1,31.8,2.1,47.7,3.2a5.072,5.072,0,0,0,5.2-2.7c19.6,13.3,39.4,26.2,57.8,41.2,24.4,20,46.1,44,57.7,73.6,2.8,7.2,13.4,1.6,10.6-5.5-21.4-54.5-72.6-87.5-119-119-24.9-16.9-48.7-34.7-69.6-56.5-7.2-7.5-14-15.2-20.6-23.2a8.806,8.806,0,0,0,.2-1.7A289.688,289.688,0,0,0,235.5,1050.2Z" fill="#7e5bff"/>
        </g>
        <g id="グループ化_4" data-name="グループ化 4">
          <path id="パス_8" data-name="パス 8" d="M1749.8,763.5c.1,15.2.6,30.4-5.4,44.7-12.4,29.2-40.8,45.4-69.1,56.1-6.6,2.5-13.3,4.8-20.1,7-1.9,2.6-5.8,3.9-8.7.9-18.5-19.4-21.5-47.5-17.5-72.9,4.9-31.1,20.7-59.2,26.3-90.1,5.2-28.6,2.6-60.1,19.7-85.2,14.9-21.8,39.2-33.5,59.5-49.3,9.7-7.5,18.8-16.2,24.1-27.4,5.8-12.4,5.8-29.3,20.2-35.6,15.4-6.7,25.6,8.5,32.7,19.7,7.5,11.9,14.7,24.2,18.8,37.7,18.9,62.6-46.5,102.7-71.2,151.4C1752.2,734.2,1749.7,748.3,1749.8,763.5Z" fill="url(#linear-gradient-3)"/>
          <path id="パス_9" data-name="パス 9" d="M1687.6,811.1a105.815,105.815,0,0,1,15.1-8.4c6.6-3,12,6.9,5.3,9.9a99.591,99.591,0,0,0-26.6,17.7c-10,29.8-22.3,58.7-40.7,84.5-16.5,23.1-37.3,43.1-62.8,56-6.5,3.3-11.8-6.7-5.3-9.9,46-23.2,74.2-69.5,91.8-116.2q2.7-7.05,5.1-14.1a5.342,5.342,0,0,1,1.4-5.7l.8-.8c5.3-16.1,10.1-32.5,14.8-48.9a4.448,4.448,0,0,1-.8-2,319.074,319.074,0,0,1-5.3-93c.6-7.2,11.9-7,11.3.2a315.853,315.853,0,0,0,1.8,71.4c7-23.3,14.8-46.3,25.1-68.5,13.1-28.1,30.6-54.4,54.1-74.8,5.5-4.7,13.2,3.5,7.7,8.2-15.5,13.5-28,29.3-38.4,46.5,5.5-3.6,10.9-7.2,16.4-10.8,6-4,11.4,5.9,5.3,9.9-11,7.3-22,14.6-33.1,21.9-12.1,25-20.9,51.9-28.7,78.4C1697.2,778.7,1692.6,795,1687.6,811.1Z" fill="#7e5bff"/>
        </g>
        <g id="グループ化_5" data-name="グループ化 5">
          <path id="パス_10" data-name="パス 10" d="M1848.7,854.7c-9.2,16.7-23.9,26.5-39.7,36.3-8,5-15.9,10.1-22.1,17.2-5.5,6.3-9.4,13.6-12.7,21.3-6.6,15.4-10.3,31.8-16.8,47.1-6.8,15.7-17.1,29.6-32.3,38.1-32.5,18.2-71.7,9.9-101.2-10.2-15.1-10.3-30.1-23.3-37.9-40.3-6.9-15.1-6-31.6.6-46.6,15.4-34.7,52.6-48.1,85.4-61,18.2-7.2,36.9-15.4,50.9-29.5a66.618,66.618,0,0,0,15.4-23.5c3.2-8.3,5.1-17.1,8-25.5,2.9-8.6,6.5-16.9,12.4-24,5.5-6.6,12.9-11.5,20.6-15.3,16.1-7.9,33.9-12.2,47.1-25.1,13.4-13.1,22-30.2,33.9-44.6,9.6-11.6,27.7-29.5,44.5-22.2a16.694,16.694,0,0,1,10.3,17.9,4.855,4.855,0,0,1-1.9,3.5c5.3,30.7-16.7,60.3-31.2,86-9.3,16.4-14,33.6-18,52C1860.4,822.8,1856.9,839.8,1848.7,854.7Z" fill="url(#linear-gradient-4)"/>
          <path id="パス_11" data-name="パス 11" d="M1768.7,777.9c2.5-7.2,14.2-4.7,11.7,2.6a285.469,285.469,0,0,0-15,81.3c8.3-11.1,16.2-22.5,23.7-34.1,18.6-28.9,35.2-59,51.6-89.2,3.7-6.8,14.3-1.3,10.6,5.5-29,53.1-58.5,106.9-98.8,152.5-19.9,22.5-42.6,42-67.1,59.3-.2.2-.5.3-.7.5,12.7-.8,25.5-1.7,38.2-2.5,7.7-.5,8.1,11.4.5,12-15.9,1.1-31.8,2.1-47.7,3.2a5.072,5.072,0,0,1-5.2-2.7c-19.6,13.3-39.4,26.2-57.8,41.2-24.4,20-46.1,44-57.7,73.6-2.8,7.2-13.4,1.6-10.6-5.5,21.4-54.5,72.6-87.5,119-119,24.9-16.9,48.7-34.7,69.6-56.5,7.2-7.5,14-15.2,20.6-23.2a8.809,8.809,0,0,1-.2-1.7A287.206,287.206,0,0,1,1768.7,777.9Z" fill="#7e5bff"/>
        </g>
        <g id="グループ化_24" data-name="グループ化 24">
          <path id="パス_12" data-name="パス 12" d="M1625.6,527.7H396.5A29.277,29.277,0,0,0,367.2,557v814.6a29.277,29.277,0,0,0,29.3,29.3H1625.7a29.277,29.277,0,0,0,29.3-29.3V557A29.362,29.362,0,0,0,1625.6,527.7Z" fill="#fff"/>
          <rect id="長方形_2" data-name="長方形 2" width="489.1" height="291.5" transform="translate(1002.5 1008.3)" fill="#ffc2eb"/>
          <rect id="長方形_3" data-name="長方形 3" width="489.1" height="291.5" transform="translate(474.4 696)" fill="#ccfffc"/>
          <path id="パス_13" data-name="パス 13" d="M1522.3,1117.2H1288.8a20.784,20.784,0,0,1-20.8-20.8V717.7a20.784,20.784,0,0,1,20.8-20.8h233.5a20.784,20.784,0,0,1,20.8,20.8v378.8A20.763,20.763,0,0,1,1522.3,1117.2Z" fill="#f4f3ff"/>
          <path id="パス_14" data-name="パス 14" d="M1507.3,721.5H1306.1a15.834,15.834,0,0,0-15.8,15.8v139a15.834,15.834,0,0,0,15.8,15.8h201.2a15.834,15.834,0,0,0,15.8-15.8v-139A15.77,15.77,0,0,0,1507.3,721.5Z" fill="#fc70c7"/>
          <g id="グループ化_7" data-name="グループ化 7">
            <path id="パス_15" data-name="パス 15" d="M1507.3,923.7H1306.1a15.834,15.834,0,0,0-15.8,15.8v139a15.834,15.834,0,0,0,15.8,15.8h201.2a15.834,15.834,0,0,0,15.8-15.8v-139A15.834,15.834,0,0,0,1507.3,923.7Z" fill="#b92bf1"/>
            <g id="グループ化_6" data-name="グループ化 6">
              <rect id="長方形_4" data-name="長方形 4" width="25.5" height="25.5" transform="translate(1317 964.3)" fill="#aa25e8"/>
              <rect id="長方形_5" data-name="長方形 5" width="25.5" height="25.5" transform="translate(1355.5 964.3)" fill="#ba3bf4"/>
              <rect id="長方形_6" data-name="長方形 6" width="25.5" height="25.5" transform="translate(1393.9 964.3)" fill="#aa25e8"/>
              <rect id="長方形_7" data-name="長方形 7" width="25.5" height="25.5" transform="translate(1432.4 964.3)" fill="#ba3bf4"/>
              <rect id="長方形_8" data-name="長方形 8" width="25.5" height="25.5" transform="translate(1470.8 964.3)" fill="#aa25e8"/>
            </g>
            <path id="パス_16" data-name="パス 16" d="M1507.3,923.7H1306.1a15.834,15.834,0,0,0-15.8,15.8v4.7H1523v-4.7A15.684,15.684,0,0,0,1507.3,923.7Z" fill="#a624e2"/>
          </g>
          <g id="グループ化_8" data-name="グループ化 8">
            <path id="パス_17" data-name="パス 17" d="M520.4,649.5H438.1a12.718,12.718,0,0,0-12.7,12.7v346.3a12.718,12.718,0,0,0,12.7,12.7h82.3a12.718,12.718,0,0,0,12.7-12.7V662.3A12.74,12.74,0,0,0,520.4,649.5Z" fill="#f4f3ff"/>
            <path id="パス_18" data-name="パス 18" d="M519.8,649.5H438.6a13.294,13.294,0,0,0-13.3,13.3v15.7H533V662.8A13.209,13.209,0,0,0,519.8,649.5Z" fill="#e3e2f7"/>
            <rect id="長方形_9" data-name="長方形 9" width="37.6" height="37.6" transform="translate(436 692.7)" fill="#ebebff"/>
            <rect id="長方形_10" data-name="長方形 10" width="37.6" height="37.6" transform="translate(482.5 735.8)" fill="#ebebff"/>
            <rect id="長方形_11" data-name="長方形 11" width="37.6" height="37.6" transform="translate(436 774.4)" fill="#ebebff"/>
            <rect id="長方形_12" data-name="長方形 12" width="37.6" height="37.6" transform="translate(482.5 817.6)" fill="#ebebff"/>
            <rect id="長方形_13" data-name="長方形 13" width="37.6" height="37.6" transform="translate(436 856.2)" fill="#ebebff"/>
            <rect id="長方形_14" data-name="長方形 14" width="37.6" height="37.6" transform="translate(482.5 899.4)" fill="#ebebff"/>
          </g>
          <g id="グループ化_10" data-name="グループ化 10">
            <path id="パス_19" data-name="パス 19" d="M1217.5,1239.5H785.3a10.285,10.285,0,0,0-10.3,10.3v69a10.285,10.285,0,0,0,10.3,10.3h432.2a10.285,10.285,0,0,0,10.3-10.3v-69A10.35,10.35,0,0,0,1217.5,1239.5Z" fill="#f4f3ff"/>
            <rect id="長方形_15" data-name="長方形 15" width="431.3" height="35.5" transform="translate(791.5 1268.8)" fill="url(#linear-gradient-5)"/>
            <path id="パス_20" data-name="パス 20" d="M1217.4,1239.5H785.3a10.392,10.392,0,0,0-10.4,10.4v4.9h452.9v-4.9A10.392,10.392,0,0,0,1217.4,1239.5Z" fill="#e3e2f7"/>
            <g id="グループ化_9" data-name="グループ化 9">
              <path id="パス_21" data-name="パス 21" d="M791.5,1304.4l-5,9.5h10.1Z" fill="#c7c7ef"/>
              <path id="パス_22" data-name="パス 22" d="M871.7,1304.4l-5.1,9.5h10.1Z" fill="#c7c7ef"/>
              <path id="パス_23" data-name="パス 23" d="M984.9,1304.4l-5,9.5H990Z" fill="#c7c7ef"/>
              <path id="パス_24" data-name="パス 24" d="M1222.9,1304.4l-5.1,9.5h10.1Z" fill="#c7c7ef"/>
            </g>
            <rect id="長方形_16" data-name="長方形 16" width="1.4" height="35.5" transform="translate(800.4 1268.8)" fill="#c7c7ef"/>
            <rect id="長方形_17" data-name="長方形 17" width="1.4" height="35.5" transform="translate(813.1 1268.8)" fill="#c7c7ef"/>
            <rect id="長方形_18" data-name="長方形 18" width="1.4" height="35.5" transform="translate(820.1 1268.8)" fill="#c7c7ef"/>
            <rect id="長方形_19" data-name="長方形 19" width="1.4" height="35.5" transform="translate(824.6 1268.8)" fill="#c7c7ef"/>
            <rect id="長方形_20" data-name="長方形 20" width="1.4" height="35.5" transform="translate(871 1268.8)" fill="#c7c7ef"/>
            <rect id="長方形_21" data-name="長方形 21" width="1.4" height="35.5" transform="translate(984.2 1268.8)" fill="#c7c7ef"/>
            <rect id="長方形_22" data-name="長方形 22" width="1.4" height="35.5" transform="translate(994.7 1268.8)" fill="#c7c7ef"/>
            <rect id="長方形_23" data-name="長方形 23" width="1.4" height="35.5" transform="translate(1000.4 1268.8)" fill="#c7c7ef"/>
            <rect id="長方形_24" data-name="長方形 24" width="1.4" height="35.5" transform="translate(1096.4 1268.8)" fill="#c7c7ef"/>
            <rect id="長方形_25" data-name="長方形 25" width="1.4" height="35.5" transform="translate(1088 1268.8)" fill="#c7c7ef"/>
            <rect id="長方形_26" data-name="長方形 26" width="1.4" height="35.5" transform="translate(1083.2 1268.8)" fill="#c7c7ef"/>
            <rect id="長方形_27" data-name="長方形 27" width="1.4" height="35.5" transform="translate(1103.4 1268.8)" fill="#c7c7ef"/>
          </g>
          <g id="グループ化_12" data-name="グループ化 12">
            <path id="パス_25" data-name="パス 25" d="M1210.9,722.4H661.8a8.749,8.749,0,0,1-8.8-8.8V643.5a8.749,8.749,0,0,1,8.8-8.8h549.1a8.749,8.749,0,0,1,8.8,8.8v70.1A8.813,8.813,0,0,1,1210.9,722.4Z" fill="#f4f3ff"/>
            <g id="グループ化_11" data-name="グループ化 11">
              <circle id="楕円形_1" data-name="楕円形 1" cx="29.3" cy="29.3" r="29.3" transform="translate(701.4 649.2)" fill="#fc70c7"/>
              <circle id="楕円形_2" data-name="楕円形 2" cx="29.3" cy="29.3" r="29.3" transform="translate(783.6 649.2)" fill="#b92bf1"/>
              <circle id="楕円形_3" data-name="楕円形 3" cx="29.3" cy="29.3" r="29.3" transform="translate(865.9 649.2)" fill="#7e5bff"/>
              <circle id="楕円形_4" data-name="楕円形 4" cx="29.3" cy="29.3" r="29.3" transform="translate(948.2 649.2)" fill="#464392"/>
              <circle id="楕円形_5" data-name="楕円形 5" cx="29.3" cy="29.3" r="29.3" transform="translate(1030.4 649.2)" fill="#51f2ed"/>
              <circle id="楕円形_6" data-name="楕円形 6" cx="29.3" cy="29.3" r="29.3" transform="translate(1112.7 649.2)" fill="#fc90b4"/>
            </g>
            <path id="パス_26" data-name="パス 26" d="M665.6,678.5l12.4,8v-16Z" fill="#cccbef"/>
            <path id="パス_27" data-name="パス 27" d="M1201.5,678.5l-12.5-8v16Z" fill="#cccbef"/>
          </g>
          <path id="パス_28" data-name="パス 28" d="M1625.1,527.4H397a29.81,29.81,0,0,0-29.8,29.8v38H1655v-38A29.9,29.9,0,0,0,1625.1,527.4Z" fill="#7e5bff"/>
          <circle id="楕円形_7" data-name="楕円形 7" cx="9.8" cy="9.8" r="9.8" transform="translate(1499.8 551.5)" fill="#fff"/>
          <circle id="楕円形_8" data-name="楕円形 8" cx="9.8" cy="9.8" r="9.8" transform="translate(1539.6 551.5)" fill="#fc70c7"/>
          <circle id="楕円形_9" data-name="楕円形 9" cx="9.8" cy="9.8" r="9.8" transform="translate(1579.4 551.5)" fill="#51f2ed"/>
          <g id="グループ化_17" data-name="グループ化 17">
            <g id="グループ化_13" data-name="グループ化 13">
              <path id="パス_29" data-name="パス 29" d="M1169.6,1104.9h-466a12.078,12.078,0,0,1-12.1-12.1v-291a12.078,12.078,0,0,1,12.1-12.1h466a12.078,12.078,0,0,1,12.1,12.1v291A12.078,12.078,0,0,1,1169.6,1104.9Z" fill="#51f2ed"/>
              <path id="パス_30" data-name="パス 30" d="M1042.7,896.6l-102,107.5a22.953,22.953,0,0,1-29,3.6L810.5,943.4a29.27,29.27,0,0,0-35.9,3.6l-83.1,79.9V1088a16.943,16.943,0,0,0,16.9,16.9h456.4a16.943,16.943,0,0,0,16.9-16.9V951.6l-103-60.1A29.438,29.438,0,0,0,1042.7,896.6Z" fill="#464392"/>
              <circle id="楕円形_10" data-name="楕円形 10" cx="33.3" cy="33.3" r="33.3" transform="translate(720.8 815.7)" fill="#7e5bff"/>
            </g>
            <g id="グループ化_16" data-name="グループ化 16">
              <g id="グループ化_14" data-name="グループ化 14">
                <path id="パス_31" data-name="パス 31" d="M1205.1,1131.1h-6a.5.5,0,0,1,0-1h5.5v-5.5a.5.5,0,0,1,1,0v6A.536.536,0,0,1,1205.1,1131.1Z" fill="#7e5bff"/>
                <path id="パス_32" data-name="パス 32" d="M1186.9,1131.1h-12.2a.5.5,0,0,1,0-1h12.2a.5.5,0,0,1,0,1Zm-24.4,0h-12.2a.5.5,0,0,1,0-1h12.2a.5.5,0,0,1,0,1Zm-24.4,0h-12.2a.5.5,0,0,1,0-1h12.2a.472.472,0,0,1,.5.5A.536.536,0,0,1,1138.1,1131.1Zm-24.5,0h-12.2a.5.5,0,0,1,0-1h12.2a.5.5,0,0,1,0,1Zm-24.4,0H1077a.5.5,0,0,1,0-1h12.2a.5.5,0,0,1,0,1Zm-24.4,0h-12.2a.5.5,0,0,1,0-1h12.2a.5.5,0,0,1,0,1Zm-24.4,0h-12.2a.5.5,0,0,1,0-1h12.2a.5.5,0,0,1,0,1Zm-24.4,0h-12.2a.5.5,0,0,1,0-1H1016a.472.472,0,0,1,.5.5A.536.536,0,0,1,1016,1131.1Zm-24.5,0H979.3a.5.5,0,0,1,0-1h12.2a.5.5,0,0,1,0,1Zm-24.4,0H954.9a.5.5,0,0,1,0-1h12.2a.5.5,0,0,1,0,1Zm-24.4,0H930.5a.5.5,0,0,1,0-1h12.2a.5.5,0,0,1,0,1Zm-24.4,0H906a.5.5,0,0,1,0-1h12.2a.472.472,0,0,1,.5.5A.457.457,0,0,1,918.3,1131.1Zm-24.5,0H881.6a.5.5,0,0,1,0-1h12.2a.5.5,0,0,1,0,1Zm-24.4,0H857.2a.5.5,0,0,1,0-1h12.2a.5.5,0,0,1,0,1Zm-24.4,0H832.8a.5.5,0,0,1,0-1H845a.5.5,0,0,1,0,1Zm-24.4,0H808.4a.5.5,0,0,1,0-1h12.2a.472.472,0,0,1,.5.5A.536.536,0,0,1,820.6,1131.1Zm-24.5,0H783.9a.5.5,0,0,1,0-1h12.2a.5.5,0,0,1,0,1Zm-24.4,0H759.5a.5.5,0,0,1,0-1h12.2a.5.5,0,0,1,0,1Zm-24.4,0H735.1a.5.5,0,0,1,0-1h12.2a.5.5,0,0,1,0,1Zm-24.4,0H710.7a.5.5,0,0,1,0-1h12.2a.472.472,0,0,1,.5.5A.536.536,0,0,1,722.9,1131.1Zm-24.5,0H686.2a.5.5,0,0,1,0-1h12.2a.5.5,0,0,1,0,1Z" fill="#7e5bff"/>
                <path id="パス_33" data-name="パス 33" d="M674,1131.1h-6a.472.472,0,0,1-.5-.5v-6a.5.5,0,0,1,1,0v5.5H674a.5.5,0,0,1,0,1Z" fill="#7e5bff"/>
                <path id="パス_34" data-name="パス 34" d="M668,1112.8a.472.472,0,0,1-.5-.5v-12.2a.5.5,0,0,1,1,0v12.2A.472.472,0,0,1,668,1112.8Zm0-24.4a.472.472,0,0,1-.5-.5v-12.2a.5.5,0,0,1,1,0v12.2A.472.472,0,0,1,668,1088.4Zm0-24.5a.472.472,0,0,1-.5-.5v-12.2a.5.5,0,0,1,1,0v12.2A.472.472,0,0,1,668,1063.9Zm0-24.4a.472.472,0,0,1-.5-.5v-12.2a.5.5,0,0,1,1,0V1039A.472.472,0,0,1,668,1039.5Zm0-24.5a.472.472,0,0,1-.5-.5v-12.2a.5.5,0,0,1,1,0v12.2A.472.472,0,0,1,668,1015Zm0-24.4a.472.472,0,0,1-.5-.5V977.9a.5.5,0,0,1,1,0v12.2A.472.472,0,0,1,668,990.6Zm0-24.5a.472.472,0,0,1-.5-.5V953.4a.5.5,0,0,1,1,0v12.2A.472.472,0,0,1,668,966.1Zm0-24.4a.472.472,0,0,1-.5-.5V929a.5.5,0,0,1,1,0v12.2A.472.472,0,0,1,668,941.7Zm0-24.5a.472.472,0,0,1-.5-.5V904.5a.5.5,0,0,1,1,0v12.2A.472.472,0,0,1,668,917.2Zm0-24.4a.472.472,0,0,1-.5-.5V880.1a.5.5,0,0,1,1,0v12.2A.472.472,0,0,1,668,892.8Zm0-24.5a.472.472,0,0,1-.5-.5V855.6a.5.5,0,0,1,1,0v12.2A.472.472,0,0,1,668,868.3Zm0-24.4a.472.472,0,0,1-.5-.5V831.2a.5.5,0,0,1,1,0v12.2A.472.472,0,0,1,668,843.9Zm0-24.5a.472.472,0,0,1-.5-.5V806.7a.5.5,0,0,1,1,0v12.2A.472.472,0,0,1,668,819.4Zm0-24.4a.472.472,0,0,1-.5-.5V782.3a.5.5,0,0,1,1,0v12.2A.472.472,0,0,1,668,795Z" fill="#7e5bff"/>
                <path id="パス_35" data-name="パス 35" d="M668,770.5a.472.472,0,0,1-.5-.5v-6a.472.472,0,0,1,.5-.5h6a.5.5,0,0,1,0,1h-5.5V770A.472.472,0,0,1,668,770.5Z" fill="#7e5bff"/>
                <path id="パス_36" data-name="パス 36" d="M1186.9,764.5h-12.2a.5.5,0,0,1,0-1h12.2a.5.5,0,0,1,0,1Zm-24.4,0h-12.2a.5.5,0,0,1,0-1h12.2a.5.5,0,0,1,0,1Zm-24.4,0h-12.2a.5.5,0,0,1,0-1h12.2a.472.472,0,0,1,.5.5A.536.536,0,0,1,1138.1,764.5Zm-24.5,0h-12.2a.5.5,0,0,1,0-1h12.2a.5.5,0,0,1,0,1Zm-24.4,0H1077a.5.5,0,0,1,0-1h12.2a.5.5,0,0,1,0,1Zm-24.4,0h-12.2a.5.5,0,0,1,0-1h12.2a.5.5,0,0,1,0,1Zm-24.4,0h-12.2a.5.5,0,0,1,0-1h12.2a.5.5,0,0,1,0,1Zm-24.4,0h-12.2a.5.5,0,0,1,0-1H1016a.472.472,0,0,1,.5.5A.536.536,0,0,1,1016,764.5Zm-24.5,0H979.3a.5.5,0,0,1,0-1h12.2a.5.5,0,0,1,0,1Zm-24.4,0H954.9a.5.5,0,0,1,0-1h12.2a.5.5,0,0,1,0,1Zm-24.4,0H930.5a.5.5,0,0,1,0-1h12.2a.5.5,0,0,1,0,1Zm-24.4,0H906a.5.5,0,0,1,0-1h12.2a.472.472,0,0,1,.5.5A.458.458,0,0,1,918.3,764.5Zm-24.5,0H881.6a.5.5,0,0,1,0-1h12.2a.5.5,0,0,1,0,1Zm-24.4,0H857.2a.5.5,0,0,1,0-1h12.2a.5.5,0,0,1,0,1Zm-24.4,0H832.8a.5.5,0,0,1,0-1H845a.5.5,0,0,1,0,1Zm-24.4,0H808.4a.5.5,0,0,1,0-1h12.2a.472.472,0,0,1,.5.5A.536.536,0,0,1,820.6,764.5Zm-24.5,0H783.9a.5.5,0,0,1,0-1h12.2a.5.5,0,0,1,0,1Zm-24.4,0H759.5a.5.5,0,0,1,0-1h12.2a.5.5,0,0,1,0,1Zm-24.4,0H735.1a.5.5,0,0,1,0-1h12.2a.5.5,0,0,1,0,1Zm-24.4,0H710.7a.5.5,0,0,1,0-1h12.2a.472.472,0,0,1,.5.5A.536.536,0,0,1,722.9,764.5Zm-24.5,0H686.2a.5.5,0,0,1,0-1h12.2a.5.5,0,0,1,0,1Z" fill="#7e5bff"/>
                <path id="パス_37" data-name="パス 37" d="M1205.1,770.5a.472.472,0,0,1-.5-.5v-5.5h-5.5a.5.5,0,0,1,0-1h6a.472.472,0,0,1,.5.5v6A.472.472,0,0,1,1205.1,770.5Z" fill="#7e5bff"/>
                <path id="パス_38" data-name="パス 38" d="M1205.1,1112.8a.472.472,0,0,1-.5-.5v-12.2a.5.5,0,0,1,1,0v12.2A.472.472,0,0,1,1205.1,1112.8Zm0-24.4a.472.472,0,0,1-.5-.5v-12.2a.5.5,0,0,1,1,0v12.2A.472.472,0,0,1,1205.1,1088.4Zm0-24.5a.472.472,0,0,1-.5-.5v-12.2a.5.5,0,0,1,1,0v12.2A.472.472,0,0,1,1205.1,1063.9Zm0-24.4a.472.472,0,0,1-.5-.5v-12.2a.5.5,0,0,1,1,0V1039A.472.472,0,0,1,1205.1,1039.5Zm0-24.5a.472.472,0,0,1-.5-.5v-12.2a.5.5,0,0,1,1,0v12.2A.472.472,0,0,1,1205.1,1015Zm0-24.4a.472.472,0,0,1-.5-.5V977.9a.5.5,0,0,1,1,0v12.2A.472.472,0,0,1,1205.1,990.6Zm0-24.5a.472.472,0,0,1-.5-.5V953.4a.5.5,0,0,1,1,0v12.2A.472.472,0,0,1,1205.1,966.1Zm0-24.4a.472.472,0,0,1-.5-.5V929a.5.5,0,0,1,1,0v12.2A.472.472,0,0,1,1205.1,941.7Zm0-24.5a.472.472,0,0,1-.5-.5V904.5a.5.5,0,0,1,1,0v12.2A.472.472,0,0,1,1205.1,917.2Zm0-24.4a.472.472,0,0,1-.5-.5V880.1a.5.5,0,0,1,1,0v12.2A.472.472,0,0,1,1205.1,892.8Zm0-24.5a.472.472,0,0,1-.5-.5V855.6a.5.5,0,0,1,1,0v12.2A.472.472,0,0,1,1205.1,868.3Zm0-24.4a.472.472,0,0,1-.5-.5V831.2a.5.5,0,0,1,1,0v12.2A.472.472,0,0,1,1205.1,843.9Zm0-24.5a.472.472,0,0,1-.5-.5V806.7a.5.5,0,0,1,1,0v12.2A.472.472,0,0,1,1205.1,819.4Zm0-24.4a.472.472,0,0,1-.5-.5V782.3a.5.5,0,0,1,1,0v12.2A.472.472,0,0,1,1205.1,795Z" fill="#7e5bff"/>
              </g>
              <rect id="長方形_28" data-name="長方形 28" width="18.8" height="18.8" transform="translate(660.6 754.6)" fill="#7e5bff"/>
              <rect id="長方形_29" data-name="長方形 29" width="18.8" height="18.8" transform="translate(660.6 1121.2)" fill="#7e5bff"/>
              <rect id="長方形_30" data-name="長方形 30" width="18.8" height="18.8" transform="translate(1193.3 754.6)" fill="#7e5bff"/>
              <rect id="長方形_31" data-name="長方形 31" width="18.8" height="18.8" transform="translate(660.6 937.9)" fill="#7e5bff"/>
              <rect id="長方形_32" data-name="長方形 32" width="18.8" height="18.8" transform="translate(1193.3 937.9)" fill="#7e5bff"/>
              <rect id="長方形_33" data-name="長方形 33" width="18.8" height="18.8" transform="translate(1193.3 1121.2)" fill="#7e5bff"/>
              <g id="グループ化_15" data-name="グループ化 15">
                <rect id="長方形_34" data-name="長方形 34" width="18.8" height="18.8" transform="translate(927.2 754.6)" fill="#7e5bff"/>
                <rect id="長方形_35" data-name="長方形 35" width="18.8" height="18.8" transform="translate(927.2 1121.2)" fill="#7e5bff"/>
              </g>
            </g>
          </g>
          <g id="グループ化_18" data-name="グループ化 18">
            <path id="パス_39" data-name="パス 39" d="M1176,1163.8H694.3a4.268,4.268,0,0,0-4.3,4.3v38.7a4.268,4.268,0,0,0,4.3,4.3H1176a4.268,4.268,0,0,0,4.3-4.3v-38.7A4.332,4.332,0,0,0,1176,1163.8Z" fill="#f4f3ff"/>
            <rect id="長方形_36" data-name="長方形 36" width="470.1" height="14.3" transform="translate(699 1185.2)" fill="url(#linear-gradient-6)"/>
            <path id="パス_40" data-name="パス 40" d="M1176.2,1163.8H694.1a4.055,4.055,0,0,0-4.1,4.1v8.2h490.3v-8.2A4.118,4.118,0,0,0,1176.2,1163.8Z" fill="#e3e2f7"/>
          </g>
          <g id="グループ化_20" data-name="グループ化 20">
            <circle id="楕円形_11" data-name="楕円形 11" cx="62.8" cy="62.8" r="62.8" transform="translate(1591.5 954.6)" fill="#51f2ed"/>
            <g id="グループ化_19" data-name="グループ化 19">
              <path id="パス_41" data-name="パス 41" d="M1700.7,1011.9l-15-1.5a31.275,31.275,0,0,0-4.3-10.3l9.6-11.7a1.093,1.093,0,0,0-.1-1.5l-3.1-3.1-3.1-3.1a1.2,1.2,0,0,0-1.5-.1l-11.7,9.6a33.551,33.551,0,0,0-10.3-4.3l-1.5-15a1.09,1.09,0,0,0-1.1-1h-8.8a1.09,1.09,0,0,0-1.1,1l-1.5,15a31.275,31.275,0,0,0-10.3,4.3l-11.7-9.6a1.093,1.093,0,0,0-1.5.1l-3.1,3.1-3.1,3.1a1.2,1.2,0,0,0-.1,1.5l9.6,11.7a33.553,33.553,0,0,0-4.3,10.3l-15,1.5a1.09,1.09,0,0,0-1,1.1v8.8a1.09,1.09,0,0,0,1,1.1l15,1.5a31.277,31.277,0,0,0,4.3,10.3l-9.6,11.7a1.093,1.093,0,0,0,.1,1.5l3.1,3.1,3.1,3.1a1.2,1.2,0,0,0,1.5.1l11.7-9.6a33.553,33.553,0,0,0,10.3,4.3l1.5,15a1.09,1.09,0,0,0,1.1,1h8.8a1.09,1.09,0,0,0,1.1-1l1.5-15a31.277,31.277,0,0,0,10.3-4.3l11.7,9.6a1.093,1.093,0,0,0,1.5-.1l3.1-3.1,3.1-3.1a1.2,1.2,0,0,0,.1-1.5l-9.6-11.7a33.553,33.553,0,0,0,4.3-10.3l15-1.5a1.09,1.09,0,0,0,1-1.1V1013A1.175,1.175,0,0,0,1700.7,1011.9Zm-46.4,30.4a24.9,24.9,0,1,1,24.9-24.9A24.9,24.9,0,0,1,1654.3,1042.3Z" fill="#fff"/>
              <path id="パス_42" data-name="パス 42" d="M1654.3,996.8a20.6,20.6,0,1,0,20.6,20.6A20.571,20.571,0,0,0,1654.3,996.8Zm0,38a17.4,17.4,0,1,1,17.4-17.4A17.413,17.413,0,0,1,1654.3,1034.8Z" fill="#fff"/>
            </g>
          </g>
          <g id="グループ化_22" data-name="グループ化 22">
            <circle id="楕円形_12" data-name="楕円形 12" cx="62.8" cy="62.8" r="62.8" transform="translate(1591.5 1129.5)" fill="#fc70c7"/>
            <g id="グループ化_21" data-name="グループ化 21">
              <path id="パス_43" data-name="パス 43" d="M1699.9,1185l-13.2-1.2c0-.1-.1-.3-.1-.4l10.9-7.6a2.013,2.013,0,0,0,.6-2.5l-2.7-4.7-2.7-4.7a1.924,1.924,0,0,0-2.4-.8l-12,5.6-.3-.3,5.6-12a1.824,1.824,0,0,0-.8-2.4l-4.7-2.7-4.7-2.7a1.827,1.827,0,0,0-2.5.6l-7.6,10.9c-.1,0-.3-.1-.4-.1l-1.2-13.2a1.863,1.863,0,0,0-1.9-1.7H1649a1.863,1.863,0,0,0-1.9,1.7l-1.2,13.2c-.1,0-.3.1-.4.1l-7.6-10.9a2.013,2.013,0,0,0-2.5-.6l-4.7,2.7-4.7,2.7a1.924,1.924,0,0,0-.8,2.4l5.6,12-.3.3-12-5.6a1.824,1.824,0,0,0-2.4.8l-2.7,4.7-2.7,4.7a1.827,1.827,0,0,0,.6,2.5l10.9,7.6c0,.1-.1.3-.1.4l-13.2,1.2a1.863,1.863,0,0,0-1.7,1.9v10.8a1.863,1.863,0,0,0,1.7,1.9l13.2,1.2c0,.1.1.3.1.4l-10.9,7.6a2.013,2.013,0,0,0-.6,2.5l2.7,4.7,2.7,4.7a1.924,1.924,0,0,0,2.4.8l12-5.6.3.3-5.6,12a1.824,1.824,0,0,0,.8,2.4l4.7,2.7,4.7,2.7a1.827,1.827,0,0,0,2.5-.6l7.6-10.9c.1,0,.3.1.4.1l1.2,13.2a1.863,1.863,0,0,0,1.9,1.7h10.8a1.863,1.863,0,0,0,1.9-1.7l1.2-13.2c.1,0,.3-.1.4-.1l7.6,10.9a2.013,2.013,0,0,0,2.5.6l4.7-2.7,4.7-2.7a1.924,1.924,0,0,0,.8-2.4l-5.6-12,.3-.3,12,5.6a1.824,1.824,0,0,0,2.4-.8l2.7-4.7,2.7-4.7a1.827,1.827,0,0,0-.6-2.5l-10.9-7.6c0-.1.1-.3.1-.4l13.2-1.2a1.863,1.863,0,0,0,1.7-1.9v-10.8A1.853,1.853,0,0,0,1699.9,1185Zm-45.6,32.4a25.1,25.1,0,1,1,25.1-25.1A25.116,25.116,0,0,1,1654.3,1217.4Z" fill="#fff"/>
            </g>
          </g>
          <g id="グループ化_23" data-name="グループ化 23">
            <rect id="長方形_37" data-name="長方形 37" width="34.9" height="34.9" transform="translate(1306.7 773.4)" fill="#ff80d5"/>
            <rect id="長方形_38" data-name="長方形 38" width="34.9" height="34.9" transform="translate(1361.7 773.4)" fill="#ea5cc2"/>
            <rect id="長方形_39" data-name="長方形 39" width="34.9" height="34.9" transform="translate(1416.8 773.4)" fill="#ff80d5"/>
            <rect id="長方形_40" data-name="長方形 40" width="34.9" height="34.9" transform="translate(1471.8 773.4)" fill="#ea5cc2"/>
            <rect id="長方形_41" data-name="長方形 41" width="34.9" height="34.9" transform="translate(1306.7 824.3)" fill="#ea5cc2"/>
            <rect id="長方形_42" data-name="長方形 42" width="34.9" height="34.9" transform="translate(1361.7 824.3)" fill="#ff80d5"/>
            <rect id="長方形_43" data-name="長方形 43" width="34.9" height="34.9" transform="translate(1416.8 824.3)" fill="#ea5cc2"/>
            <rect id="長方形_44" data-name="長方形 44" width="34.9" height="34.9" transform="translate(1471.8 824.3)" fill="#ff80d5"/>
          </g>
          <path id="パス_44" data-name="パス 44" d="M1507.3,721.5H1306.1a15.834,15.834,0,0,0-15.8,15.8v3.1H1523v-3.1A15.622,15.622,0,0,0,1507.3,721.5Z" fill="#ea5cc2"/>
        </g>
        <g id="グループ化_31" data-name="グループ化 31">
          <g id="グループ化_29" data-name="グループ化 29">
            <path id="パス_45" data-name="パス 45" d="M653.5,1710.9l5.7,57.5a20.2,20.2,0,0,0,12.5,0l6.6-48.4Z" fill="url(#linear-gradient-7)"/>
            <path id="パス_46" data-name="パス 46" d="M491.3,1695.8l8.3,69.7s10.5,2.8,16,0l3.1-53Z" fill="url(#linear-gradient-8)"/>
            <path id="パス_47" data-name="パス 47" d="M573.5,841.1c-7-13.1-22.6-16.4-36-18.5-4.4-.7-6.3,6-1.9,6.7.3.1.7.1,1,.2-.1,14,.5,28.8,9.4,40.3,5.9,7.6,19.4,15.8,27.5,6.4C580.9,868,578.2,850,573.5,841.1Z" fill="#303075"/>
            <path id="パス_48" data-name="パス 48" d="M514.2,984.3s-19.1,26.8-25.3,58.8c-6.2,32.1-25.7,87.1-18,101s137.3,40.4,144.9,46,17.6,18.1,21.3,25.1c3.8,7,28.8,9.8,31.6,0s-10.5-37.6-37.6-46.7c-27.2-9.1-102.4-44.6-102.4-44.6Z" fill="url(#linear-gradient-9)"/>
            <path id="パス_49" data-name="パス 49" d="M560.1,1146.3l8.9-3.8c-21.9-9.9-40.3-18.6-40.3-18.6L514.2,984.2s-19.1,26.8-25.3,58.8c-6.2,32.1-25.7,87.1-18,101,3.8,6.9,37.8,17,72,26Z" fill="url(#linear-gradient-10)"/>
            <path id="パス_50" data-name="パス 50" d="M506.9,1180.2s-29.7,37.1-29.8,93.8c0,56.9,26.9,146.8,25.1,174.7-1.9,27.9-8.7,37.2-9.3,81.8s21.5,102.3,15.8,125.8c-5.9,24.4-28.9,35.2-10.2,54.5,17.4,17.9,35.3,30.2,43.7,46.9s72.5,12.5,62.2-1.4c-10.2-13.9-63.2-48.3-61.3-118s20.4-329.8,20.4-329.8Z" fill="url(#linear-gradient-11)"/>
            <path id="パス_51" data-name="パス 51" d="M560.8,923.6s-1,41.8,10.5,48.8,28.2,39.7,39.7,54.7,14.3,34.5,5.9,48.1-17.1,30-20.2,52.6.3,67.9,12.2,106.3S659.8,1455,662.6,1471s25.1,177.7,33.4,204.9,31.4,58.5,44.6,66.9,57.8,16.7,41.1,24.4-67.6,4.9-73.9,0-21.6-33.4-38.3-39-21.6-22.3-10.5-44.6-15.1-79.4-31.8-123.3-11.1-77.8-26.5-110.6c-15.3-32.8-124-145.5-111-214.8,12.5-66.9,33.7-66.7,30.2-97.3-3.5-30.7-26.9-86.9-17.7-123.1,9.3-36.2,27.4-44.1,26.5-72.5-.9-28.3,2.3-34.4,2.3-34.4Z" fill="url(#linear-gradient-12)"/>
            <path id="パス_52" data-name="パス 52" d="M560.1,988.6s109.1-35.7,123.3-61,46.8-73.3,41.9-91.8-1.2-38.2,8-38.8,30.6,15.4,26.1,27.7-13.8,6.2-18.1,28.3c-4.3,22.2-20.3,99.8-35.7,109.7s-109.7,67.2-109.7,67.2Z" fill="url(#linear-gradient-13)"/>
            <path id="パス_53" data-name="パス 53" d="M573.7,930.2c10.8-4.2,9.2-19.3,4.6-37.5l-6.1-21.6c-1.3-4.7-2.6-9.3-3.8-13.9-7.7-30.8-36.6-34.2-36.6-34.2-63.7,23.2-42.5,69.3-27.2,93.1C520,939.9,559.5,935.7,573.7,930.2Z" fill="url(#linear-gradient-14)"/>
            <path id="パス_54" data-name="パス 54" d="M610.9,1027.1c-11.5-15-28.2-47.7-39.7-54.7a11.583,11.583,0,0,1-2.6-2.4c6.6-7.5,13-24.4-.7-27.1-3.3-.7-6.4.4-9.4,1.7-4,1.7-6.2,4-11.2,2.2-1.4-.5-2.5-1.9-4.1-2.4-4.1-1.3-7.7,1.6-11.7.8-3.7-.7-6.4-3.5-10.4-3.6-16.5-.3-5.4,20.8.4,29.2-5.9,11.3-14.1,22.8-19.4,43.5-9.3,36.2,14.2,92.4,17.7,123.1.9,8.3.1,14.3-1.9,20.1,27.9,7.7,61.3-1.6,77.6-7.3a147.27,147.27,0,0,1,1.1-22.4c3.1-22.6,11.8-39,20.2-52.6S622.4,1042.1,610.9,1027.1Z" fill="url(#linear-gradient-15)"/>
            <path id="パス_55" data-name="パス 55" d="M740.8,912.7c-2.9-2.5-5.1-1.4-8.3-1-.7.1-1.5,1.1-2.2,1.1-1.2-.1-2.4-2-2.8-2.8-.5-1.3-.1-3.4-.4-4.8-.6-2.9-2.1-5.6-5.1-6.6-2.7-.9-5.1,0-7.3,1.5-1.2.8-2.8,3.1-4.2,3.2-2.3.2-2.9-2.1-4-3.6-3.4-4.9-9.2-8.8-14.2-3.1-3.1,3.5-2.8,8.9-3,13.2-.1,2.7-.3,5.4-.4,8.1-2.1,3.5-4,6.8-5.7,9.7-14.2,25.3-123.3,61-123.3,61l35.7,41.3s94.3-57.3,109.7-67.2c.4-.3.8-.6,1.3-1,8.9-4.4,16.6-15,22.1-21.4,4.7-5.5,14.5-12.4,14.9-20.3A8.6,8.6,0,0,0,740.8,912.7Z" fill="url(#linear-gradient-16)"/>
            <path id="パス_56" data-name="パス 56" d="M604.4,1756.2c-2.8-3.9-9-9.3-16.4-16.7-9.3.3-21.8-.1-32-3.5-18.8-6.3-53.8-64.2-53.8-64.2h0c-8.1,14.5-18,24.3-3.8,38.9,17.4,17.9,35.3,30.2,43.7,46.9S614.6,1770.1,604.4,1756.2Z" fill="#464392"/>
            <path id="パス_57" data-name="パス 57" d="M743.1,1744.2c-19,8.2-36.7-8.1-48.6-24-9.3-12.5-26.4-27.5-36-35.6-10.5,21.8-5.5,38,11,43.5,16.7,5.6,32.1,34.1,38.3,39,6.3,4.9,57.1,7.7,73.9,0C797.4,1759.9,758.7,1752,743.1,1744.2Z" fill="#464392"/>
            <g id="グループ化_25" data-name="グループ化 25">
              <circle id="楕円形_13" data-name="楕円形 13" cx="5.6" cy="5.6" r="5.6" transform="translate(479.962 1076.346) rotate(-55.244)" fill="#fc81d3"/>
              <circle id="楕円形_14" data-name="楕円形 14" cx="5.6" cy="5.6" r="5.6" transform="translate(489.011 1123.561) rotate(-55.244)" fill="#fc81d3"/>
              <path id="パス_58" data-name="パス 58" d="M492.3,1044.2a5.622,5.622,0,0,0-1.4-7.8.758.758,0,0,0-.4-.2c-.6,2.3-1.1,4.6-1.6,6.9-.2,1.1-.5,2.3-.7,3.4A5.427,5.427,0,0,0,492.3,1044.2Z" fill="#fc81d3"/>
              <path id="パス_59" data-name="パス 59" d="M475.5,1111.7a5.622,5.622,0,0,0-1.4-7.8.349.349,0,0,1-.2-.1c-.8,3.5-1.6,6.9-2.2,10.2A5.487,5.487,0,0,0,475.5,1111.7Z" fill="#fc81d3"/>
              <path id="パス_60" data-name="パス 60" d="M495.8,1155.9a5.6,5.6,0,1,0-9.2-6.4,5.5,5.5,0,0,0-1,3.2c2.9,1.2,6.2,2.4,9.8,3.6A.781.781,0,0,0,495.8,1155.9Z" fill="#fc81d3"/>
            </g>
            <g id="グループ化_26" data-name="グループ化 26">
              <circle id="楕円形_15" data-name="楕円形 15" cx="5.6" cy="5.6" r="5.6" transform="translate(536.054 1084.197) rotate(-55.24)" fill="#fc81d3"/>
              <path id="パス_61" data-name="パス 61" d="M522.9,1122.8a5.607,5.607,0,0,0-7.5-8c.9,3.6,1.7,7,2.3,10.3A5.522,5.522,0,0,0,522.9,1122.8Z" fill="#fc81d3"/>
              <circle id="楕円形_16" data-name="楕円形 16" cx="5.6" cy="5.6" r="5.6" transform="matrix(0.134, -0.991, 0.991, 0.134, 527.267, 1011.864)" fill="#fc81d3"/>
              <circle id="楕円形_17" data-name="楕円形 17" cx="5.6" cy="5.6" r="5.6" transform="translate(543.264 1121.878) rotate(-55.244)" fill="#fc81d3"/>
              <circle id="楕円形_18" data-name="楕円形 18" cx="5.6" cy="5.6" r="5.6" transform="translate(513.5 1029.8)" fill="#fc81d3"/>
              <path id="パス_62" data-name="パス 62" d="M504.3,1068.7a5.52,5.52,0,0,0,6-2.2,5.622,5.622,0,0,0-1.4-7.8,5.4,5.4,0,0,0-6.4.1Q503.25,1063.75,504.3,1068.7Z" fill="#fc81d3"/>
              <circle id="楕円形_19" data-name="楕円形 19" cx="5.6" cy="5.6" r="5.6" transform="matrix(0.852, -0.523, 0.523, 0.852, 552.456, 1037.41)" fill="#fc81d3"/>
              <circle id="楕円形_20" data-name="楕円形 20" cx="5.6" cy="5.6" r="5.6" transform="translate(542.7 968.5)" fill="#fc81d3"/>
              <circle id="楕円形_21" data-name="楕円形 21" cx="5.6" cy="5.6" r="5.6" transform="matrix(0.134, -0.991, 0.991, 0.134, 588.377, 1050.994)" fill="#fc81d3"/>
              <path id="パス_63" data-name="パス 63" d="M606.3,1082.6a5.622,5.622,0,0,0,1.4,7.8c.2.1.3.2.5.3,1.7-3.4,3.5-6.7,5.2-9.8A5.51,5.51,0,0,0,606.3,1082.6Z" fill="#fc81d3"/>
              <circle id="楕円形_22" data-name="楕円形 22" cx="5.6" cy="5.6" r="5.6" transform="translate(579.648 1141.105) rotate(-55.244)" fill="#fc81d3"/>
              <circle id="楕円形_23" data-name="楕円形 23" cx="5.6" cy="5.6" r="5.6" transform="translate(572.476 1092.857) rotate(-55.236)" fill="#fc81d3"/>
              <circle id="楕円形_24" data-name="楕円形 24" cx="5.6" cy="5.6" r="5.6" transform="translate(574.7 1011.7)" fill="#fc81d3"/>
            </g>
            <g id="グループ化_27" data-name="グループ化 27">
              <circle id="楕円形_25" data-name="楕円形 25" cx="5.6" cy="5.6" r="5.6" transform="matrix(0.134, -0.991, 0.991, 0.134, 713.782, 924.471)" fill="#fc81d3"/>
              <circle id="楕円形_26" data-name="楕円形 26" cx="5.6" cy="5.6" r="5.6" transform="matrix(0.937, -0.35, 0.35, 0.937, 673.744, 955.19)" fill="#fc81d3"/>
              <path id="パス_64" data-name="パス 64" d="M689.7,923.2a5.6,5.6,0,1,0,1.5-11.1,5.92,5.92,0,0,0-1.9.1c-.1,1.9-.2,3.7-.3,5.6-.8,1.4-1.6,2.7-2.3,3.9A4.809,4.809,0,0,0,689.7,923.2Z" fill="#fc81d3"/>
              <path id="パス_65" data-name="パス 65" d="M721.6,948.9a5.592,5.592,0,0,0-7-3,5.673,5.673,0,0,0-3.3,7.2,5.6,5.6,0,0,0,3.2,3.2A98.832,98.832,0,0,0,721.6,948.9Z" fill="#fc81d3"/>
              <path id="パス_66" data-name="パス 66" d="M613.3,1012.3a5.59,5.59,0,0,0-4.1,9.4q4.2-2.55,9.3-5.7A5.64,5.64,0,0,0,613.3,1012.3Z" fill="#fc81d3"/>
              <path id="パス_67" data-name="パス 67" d="M643.6,955.4a5.6,5.6,0,0,0,10.5-3.9l-.6-1.2q-4.8,2.55-9.9,5.1Z" fill="#fc81d3"/>
              <path id="パス_68" data-name="パス 68" d="M654.4,986.9a5.591,5.591,0,0,0-5.6,5.6,5.664,5.664,0,0,0,1.7,4c3.1-1.9,6.1-3.7,9.2-5.6A5.489,5.489,0,0,0,654.4,986.9Z" fill="#fc81d3"/>
              <path id="パス_69" data-name="パス 69" d="M597,981.5a5.591,5.591,0,0,0,5.6-5.6,5.136,5.136,0,0,0-.6-2.5c-3.6,1.4-7,2.7-10.3,4A5.488,5.488,0,0,0,597,981.5Z" fill="#fc81d3"/>
              <circle id="楕円形_27" data-name="楕円形 27" cx="5.6" cy="5.6" r="5.6" transform="matrix(0.937, -0.35, 0.35, 0.937, 621.747, 981.489)" fill="#fc81d3"/>
            </g>
            <path id="パス_70" data-name="パス 70" d="M562.1,839.6a1.549,1.549,0,0,0-.8-.8,31.509,31.509,0,0,0-29-16.7,40.708,40.708,0,0,0-6.3.1h-.6c-19.1,1-34.1,14.1-42.4,30.7-8.9,17.7-10.8,37.5-15.1,56.5-5.7,11.5-13.5,22.3-14.1,35.4a25.346,25.346,0,0,0,4.4,16.3c4.7,6.4,13.4,9.8,16.1,17.4-1.6,6.5-4.4,12.6-1.8,19.8a21.721,21.721,0,0,0,16.1,14.1c6.9,1.3,15.4,1.6,22.8-.5a18.422,18.422,0,0,0,21.1-7.9c11.1-17.3-3-37.5,0-56.1,4.3-7.5,8.9-12.6,7.2-21.9-1-5.5-3.5-10.7-3.2-16.4a31.054,31.054,0,0,1,.4-3.2c6.4-9.1,18-16.1,24.4-24.3C571.7,868.8,567.7,853.9,562.1,839.6ZM470.7,968.8c-7.1-6.5-13.9-11.3-14.2-22-.2-9.5,3.9-18,8.4-26.4-2.7,8.8-5.9,17.8-3.7,27a23.8,23.8,0,0,0,5.4,10.3c3.4,4.1,8.4,7.6,8.5,13.4a24.367,24.367,0,0,1-.1,2.7A27.934,27.934,0,0,0,470.7,968.8Zm63.2,15.8c.6,7.6-.8,16.1-6.7,21.5a15,15,0,0,1-10.7,3.9,20.2,20.2,0,0,0,3.8-2.3c4.2-3.1,8.5-7.5,10.6-12.6,5.8-10.3-.6-23.2-1.1-34.9C530.7,968.3,533.2,976.3,533.9,984.6Zm13.4-92.8c-2.7,2.4-5.5,4.9-8,7.6a52.955,52.955,0,0,1,3.3-5.7c7.9-12.1,20.2-22.9,22-37.3a30.9,30.9,0,0,1-.4,14.8C561.5,879.9,554,886.1,547.3,891.8Z" fill="url(#linear-gradient-17)"/>
            <path id="パス_71" data-name="パス 71" d="M608.8,1234c-10-32.4-14.1-69.8-13.2-94.3-27.3,7.1-56.2,4.7-75.5,1.4.8,15.7-5.6,23.1-13.4,39.2-2.1,2.7-27.5,36.5-29.5,87.5h0v.5c-.1,1.9-.1,3.7-.1,5.6v.5a520.922,520.922,0,0,0,2.8,58.6c3.7,34.4-22.9,71.8-22.9,71.8s12.1,13.2,48.9,21.8h.2a247.955,247.955,0,0,0,48.9,6.3s8.2,1.9,35.1-.5a481.845,481.845,0,0,0,62.8-7.9C639.9,1363.4,617.3,1261.5,608.8,1234Z" fill="url(#linear-gradient-18)"/>
            <g id="グループ化_28" data-name="グループ化 28">
              <path id="パス_72" data-name="パス 72" d="M515.8,1271.2a240.953,240.953,0,0,1,1.7-32.9,167.643,167.643,0,0,1,7.9-32.7c6.8-20,15.3-40.8,12.4-62.1-.5,0-1-.1-1.4-.1,2.9,20.1-4.7,40-11.3,58.8-3.6,10.5-6.8,21.1-8.5,32.1a218.665,218.665,0,0,0-2.2,32.4c-.1,22.4,1.9,44.7,1,67.1a232.638,232.638,0,0,1-12,64.5c-2.9,8.6-6.7,16.7-10.1,25.1.5.1.9.3,1.4.4,3.3-8,6.9-15.8,9.7-23.9a234.673,234.673,0,0,0,12.2-61.5C517.9,1315.9,515.9,1293.6,515.8,1271.2Z" fill="#7afcf5"/>
              <path id="パス_73" data-name="パス 73" d="M555.9,1212.1c-.8-22.7.4-45.6,5.3-67.8h-1.4c-8.9,40.6-5.4,82.6-.1,123.5,5.6,43.7,12.8,87.3,9.5,131.5-.8,11.3-1.9,22.9-1.2,34.3h1.4c-.7-10.2.1-20.6.9-30.6a388.542,388.542,0,0,0-.4-62.9C566.1,1297.4,557.5,1255.1,555.9,1212.1Z" fill="#7afcf5"/>
              <path id="パス_74" data-name="パス 74" d="M603.8,1392.7a401.635,401.635,0,0,0-7.3-59.9c-8-41.1-20.2-81.4-24.9-123.1-2.5-22-2.8-44.2.6-66-.5,0-1,.1-1.4.1-13.1,83.2,27.7,162.9,31.4,245.4.6,13.9.8,28.6,4.9,41.9.5,0,.9-.1,1.4-.1C604.8,1418.8,604.4,1405.5,603.8,1392.7Z" fill="#7afcf5"/>
              <path id="パス_75" data-name="パス 75" d="M474.6,1416.1c6.9-15,13.4-30.2,17.8-46.2a148.455,148.455,0,0,0,5.2-28.9c.8-10.7.1-21.4-.7-32.1-1.7-21-3.8-41.8,1.2-62.6,4.3-17.7,11.9-34.4,18.6-51.3,6.6-16.9,12.2-34.4,12.2-52.6-.5-.1-.9-.1-1.4-.2.2,34.8-20,65.5-29.3,98.3-5.4,19.1-5.2,38.1-3.6,57.7,1.8,21.2,3.3,41.8-1.4,62.7-4.2,19-11.8,36.9-19.9,54.6C473.8,1415.7,474.2,1415.9,474.6,1416.1Z" fill="#7afcf5"/>
              <path id="パス_76" data-name="パス 76" d="M634.3,1411.7c-4.9-22.1-9.7-44.3-14.5-66.4-9.7-44.1-20-88.2-28-132.6-4.2-23.2-7.5-46.6-9.4-70.2a6.754,6.754,0,0,1-1.4.2c3.5,43.2,11.9,85.9,21.1,128.2,9.8,45.5,19.9,91,29.8,136.5,1.4,6.6,2.9,13.4,4.7,20.1.5-.1.9-.1,1.4-.2C636.6,1422.1,635.4,1416.9,634.3,1411.7Z" fill="#7afcf5"/>
              <path id="パス_77" data-name="パス 77" d="M530.9,1387.3c3-9.4,6.2-18.8,8.3-28.5a139.1,139.1,0,0,0,3.2-28.1c.5-20.4-1.9-40.7-2.3-61.1-.4-20.7.4-41.5,1.9-62.2,1.6-21.2,3.8-42.2,6.2-63.3a6.6,6.6,0,0,1-1.4-.1c-4.4,39.4-8.5,79-8.2,118.7.2,20.5,2.4,40.8,2.5,61.3a162.352,162.352,0,0,1-2.7,31.9c-2,9.7-5.1,19.1-8.1,28.6-4.7,14.6-9.1,30-8.5,45.3a6.754,6.754,0,0,0,1.4.2C522.7,1415.6,526.6,1401.1,530.9,1387.3Z" fill="#7afcf5"/>
            </g>
          </g>
          <g id="グループ化_30" data-name="グループ化 30">
            <path id="パス_78" data-name="パス 78" d="M1537.5,1491.9s-16.3,43.2-30.5,73.7-41.8,77.2-32.6,77.2,164.4-4.3,176.4-9.2c12-5,44.6-24.8,53.1-6.4s12.5,97.9,3.6,100c-24.4,5.8-67.3,10.5-46.1-17.8,6.1-8.2,14.2-41.8-9.9-34s-177.6,38.3-231.2,28.3c-53.6-9.9-11.1-156.6-11.1-156.6l46-65.9Z" fill="url(#linear-gradient-19)"/>
            <path id="パス_79" data-name="パス 79" d="M1707.5,1727.2c8.9-2.1,4.9-81.6-3.6-100s-41.1,1.4-53.1,6.4c-1.9.8-7.6,1.6-15.7,2.3v43.8c7.5-1.7,13.2-3.2,16.5-4.3,24.1-7.8,16,25.8,9.9,34C1640.2,1737.7,1683.1,1733,1707.5,1727.2Z" fill="#303075"/>
            <path id="パス_80" data-name="パス 80" d="M1474.4,1642.8c-9.2,0,18.4-46.8,32.6-77.2,14.2-30.5,30.5-73.7,30.5-73.7l-82.2-10.6-46,65.9s-42.5,146.6,11.1,156.6c53.6,9.9,184.7-1.4,209.8-4.9,7.1-1,23.4-3,24.3-3.1.1-15.3-1.5-54.4-2.3-62.7a6.121,6.121,0,0,1-1.2.5C1638.8,1638.6,1483.6,1642.8,1474.4,1642.8Z" fill="url(#linear-gradient-20)"/>
            <path id="パス_81" data-name="パス 81" d="M1373.1,1265.2s15.6,15.9,17.4,22.3-25.6,60.8-25.6,60.8,29.8,75.6,36.4,94-14.6,20.8-41.6,22.2c-26.9,1.4-101.1-5.2-118.3,13.2-16.6,17.8,25.5,216.8,21.3,227.4s-21.3,15.6-43.2,26.2-69.4,29-30.5,30.5c39,1.4,121,1.5,121.9-10.6,2.3-32.5-13.5-51.8-14.2-65.9-.7-14.2-.7-135.3,9.2-138.9,9.9-3.5,56,12.8,112.6,4.3,56.7-8.5,109.1-26.2,119-58.8s-23.4-138.1-42.5-167.2c-19.1-29-93.5-82.9-93.5-82.9Z" fill="url(#linear-gradient-21)"/>
            <path id="パス_82" data-name="パス 82" d="M1188.9,1761.8c39,1.4,121,1.5,121.9-10.6,2.3-32.5-13.5-51.8-14.2-65.9v-.4c-11.5.4-24.3.9-35.2,1.3,1.3,10.3,1.9,17.2,1.2,18.9-4.3,10.6-21.3,15.6-43.2,26.2S1150,1760.4,1188.9,1761.8Z" fill="#303075"/>
            <path id="パス_83" data-name="パス 83" d="M1417.7,1282.9s-18.9-6.4-40.1,12.5c-21.3,18.9-62.8,75.1-74.6,78.4s-98.2-20.3-109.1-32.1-17.5-21.3-26.4-21.7c-9-.5-25.5,26-9.4,35.5,16.1,9.4,23.6,9,56.7,28.3,16.8,9.8,93.6,46.4,105.1,42,26.2-9.9,71-60,71-60l29.5-83.9" fill="url(#linear-gradient-22)"/>
            <path id="パス_84" data-name="パス 84" d="M1368.6,1160.8s-37.5,3.8-38,46.2c0,2.5,0,4.9.1,7.2-1.6,6.4-6.4,25.9-4.7,27s6.8,1,8.4.9c5,19.5,13.6,29.8,18.8,30.6,7.7,1.2,61.5-10.8,64.2-54.3C1420.2,1175,1404.1,1156.5,1368.6,1160.8Z" fill="url(#linear-gradient-23)"/>
            <path id="パス_85" data-name="パス 85" d="M1381.6,1158.5c-12-3-18-2.4-30.2.4a39.256,39.256,0,0,0-9.1,3.2,6.713,6.713,0,0,1-5,.4h0c-5-1.7-10.2-2.9-14.8,1.7-5,5-2.7,16.2,3,20.6a4.562,4.562,0,0,1,1.2,1.2c4.3,5.9,6.1,2.6,12.9,2.1,5.2-.3,9.9,0,14.2,3.2,4.1,3.1,7.5,7.3,10.6,11.3,6.6,8.6,10.1,19.4,3.6,29.2a21.415,21.415,0,0,1-12.4,8.6c-5.1,1.3-10-.2-15.1.5-3.6.5-6.5.5-6.5,4.4-.1,4.7,1.4,7,3.8,10.5,3.2,4.8,5.8,9.7,9.4,14.2,2.4,3.1,3.1,3.9,7.3,4.6a16.379,16.379,0,0,0,12.8-3.1c4.3-3.2,7.2-3.8,11-7.7,6.6-6.7,11.6-14.9,12.9-24.4.8-6,0-12-.1-18,0-2-.1-5,1.6-6.3,2.5-1.9,5.5,1.4,6.7,3.4,5.2,8.7,3.7,21.2,14.2,26.3,2,1,5.1-.5,4.3-3.1-3.9-12.4,2.9-24.5,2.2-36.7-.7-11.8-3.2-24.9-11.6-33.1C1400.3,1163.4,1392.9,1161.3,1381.6,1158.5Z" fill="url(#linear-gradient-24)"/>
            <path id="パス_86" data-name="パス 86" d="M1537.5,1491.9a43.782,43.782,0,0,0,1.2-5.9c-27.1-8.3-100-30.8-137.2-42.8,5.6,17.6-15.4,19.9-41.9,21.3-26.9,1.4-101.1-13.2-123.2,14-16.5,20.3,14.4,156.1,12.6,225.5,14.7-.7,52.4-5.3,59.5-7.4a84.722,84.722,0,0,1-1.5-13.2c-.7-14.2-11.2-133.4-1.3-137,9.9-3.5,56,12.8,112.6,4.3C1475.1,1542.2,1527.6,1524.5,1537.5,1491.9Z" fill="url(#linear-gradient-25)"/>
            <path id="パス_87" data-name="パス 87" d="M1495,1324.7c-11.3-17.1-41.7-42.8-64.8-61.1h0c8.3-11.8-11.1-22.9-19.3-11.3-7.1,10.2-17.6,16.9-29.6,20-13.9,3.6-8,25.1,5.9,21.5.8-.2,1.5-.4,2.3-.6-4.8,15.6-24.7,55.1-24.7,55.1s29.8,75.6,36.4,94c3,8.4.2,13.4-6.2,16.6,29.8,36,101.3,47.2,135.8,50.1,3.1-5.1,4.8-11.3,6.6-17.1C1547.4,1459.3,1514.1,1353.8,1495,1324.7Z" fill="url(#linear-gradient-26)"/>
            <path id="パス_88" data-name="パス 88" d="M1417.7,1282.9s-18.9-6.4-40.1,12.5-62.8,75.1-74.6,78.4c-8,2.2-49.9-7.8-79.6-18.2-1.4,7.8-11.6,29.3-18.1,36.4.8.4,9.7,5.8,10.5,6.3,16.8,9.8,92.6,31.8,104.1,27.5,26.2-9.9,71-60,71-60l29.5-83.9Z" fill="url(#linear-gradient-27)"/>
          </g>
        </g>
      </g>
    </g>
  </g>
</svg>
